<svg height="512pt" viewBox="-61 0 512 512" width="512pt" xmlns="http://www.w3.org/2000/svg"><path d="m375 0h-360c-8.285156 0-15 6.714844-15 15v482c0 8.285156 6.714844 15 15 15h360c8.285156 0 15-6.714844 15-15v-482c0-8.285156-6.714844-15-15-15zm-15 482h-330v-452h330zm0 0"/><path d="m75 331h240c8.285156 0 15-6.714844 15-15v-180c0-8.285156-6.714844-15-15-15h-240c-8.285156 0-15 6.714844-15 15v180c0 8.285156 6.714844 15 15 15zm15-30v-8.785156l45-45 19.394531 19.390625c5.855469 5.859375 15.355469 5.859375 21.210938 0l49.394531-49.390625 75 75v8.785156zm210-150v98.785156l-64.394531-64.390625c-5.855469-5.859375-15.355469-5.859375-21.210938 0l-49.394531 49.390625-19.394531-19.390625c-5.855469-5.859375-15.355469-5.859375-21.210938 0l-34.394531 34.390625v-98.785156zm0 0"/><path d="m75 451h90c8.285156 0 15-6.714844 15-15s-6.714844-15-15-15h-90c-8.285156 0-15 6.714844-15 15s6.714844 15 15 15zm0 0"/><path d="m75 391h90c8.285156 0 15-6.714844 15-15s-6.714844-15-15-15h-90c-8.285156 0-15 6.714844-15 15s6.714844 15 15 15zm0 0"/><path d="m75 91h240c8.285156 0 15-6.714844 15-15s-6.714844-15-15-15h-240c-8.285156 0-15 6.714844-15 15s6.714844 15 15 15zm0 0"/><path d="m315 361h-90c-8.285156 0-15 6.714844-15 15s6.714844 15 15 15h90c8.285156 0 15-6.714844 15-15s-6.714844-15-15-15zm0 0"/><path d="m315 421h-90c-8.285156 0-15 6.714844-15 15s6.714844 15 15 15h90c8.285156 0 15-6.714844 15-15s-6.714844-15-15-15zm0 0"/></svg>